<svg width="63" height="42" viewBox="0 0 63 42" fill="none" xmlns="http://www.w3.org/2000/svg">
<path d="M43.412 20.7318L62.2 39.5198V1.94482L43.412 20.7318Z" fill="white"/>
<path d="M32.905 27.53L60.422 0.013C60.4 0.012 60.381 0 60.359 0H1.92L29.448 27.528C30.365 28.448 31.988 28.447 32.905 27.53Z" fill="white"/>
<path d="M34.761 29.3829C33.806 30.3359 32.535 30.8629 31.178 30.8629C29.82 30.8629 28.547 30.3379 27.593 29.3829L20.57 22.3599L1.603 41.3269C1.685 41.3379 1.758 41.3749 1.843 41.3749H60.347L41.559 22.5869L34.761 29.3829Z" fill="white"/>
<path d="M0.008 1.7998C0.008 1.8148 0 1.8268 0 1.8408V39.2178L18.713 20.5048L0.008 1.7998Z" fill="white"/>
</svg>
