<svg width="62" height="62" viewBox="0 0 62 62" fill="none" xmlns="http://www.w3.org/2000/svg">
<path d="M30.62 14.7861C21.821 14.7861 14.661 21.8691 14.661 30.5761C14.661 39.2821 21.82 46.3651 30.62 46.3651C39.419 46.3651 46.579 39.2821 46.579 30.5761C46.579 21.8691 39.419 14.7861 30.62 14.7861ZM30.62 40.5521C25.025 40.5521 20.474 36.0761 20.474 30.5761C20.474 25.0751 25.025 20.6001 30.62 20.6001C36.214 20.6001 40.766 25.0751 40.766 30.5761C40.766 36.0771 36.215 40.5521 30.62 40.5521Z" fill="white"/>
<path d="M43.541 0H17.598C7.895 0 0 7.894 0 17.598V43.779C0 53.482 7.894 61.377 17.598 61.377H43.541C53.245 61.377 61.139 53.482 61.139 43.779V17.598C61.139 7.895 53.245 0 43.541 0ZM55.315 43.779C55.315 50.271 50.033 55.553 43.541 55.553H17.598C11.106 55.553 5.824 50.271 5.824 43.779V17.598C5.824 11.106 11.106 5.824 17.598 5.824H43.541C50.033 5.824 55.315 11.106 55.315 17.598V43.779Z" fill="white"/>
<path d="M46.863 17.8962C48.9368 17.8962 50.618 16.2151 50.618 14.1412C50.618 12.0674 48.9368 10.3862 46.863 10.3862C44.7892 10.3862 43.108 12.0674 43.108 14.1412C43.108 16.2151 44.7892 17.8962 46.863 17.8962Z" fill="white"/>
</svg>
