<svg width="56" height="40" viewBox="0 0 56 40" fill="none" xmlns="http://www.w3.org/2000/svg">
<path d="M55.092 7.882C54.563 3.705 52.15 1.085 47.867 0.698C42.963 0.255 32.347 0 27.423 0C17.351 0 12.85 0.246 8.087 0.739C3.548 1.208 1.561 3.225 0.78 7.389C0.233 10.307 0 13.04 0 19.499C0 25.301 0.274 28.95 0.698 32.02C1.281 36.236 4.175 38.605 8.416 38.958C13.35 39.369 23.234 39.574 28.121 39.574C32.843 39.574 43.47 39.328 48.195 38.794C52.424 38.316 54.435 36.057 55.092 31.897C55.092 31.897 55.79 27.34 55.79 19.458C55.79 14.97 55.462 10.796 55.092 7.882ZM21.963 27.628V11.59L37.234 19.527L21.963 27.628Z" fill="white"/>
</svg>
